<svg xmlns="http://www.w3.org/2000/svg" xml:space="preserve" width="621.298" height="117.177" style="shape-rendering:geometricPrecision;text-rendering:geometricPrecision;image-rendering:optimizeQuality;fill-rule:evenodd;clip-rule:evenodd" viewBox="0 0 16438.5 3100.3">
  <title>Логотип Neurotech</title>
  <defs>
    <style>
      .mainlogo0{fill:#148dc6}.mainlogo1{fill:#2b61b8}
    </style>
  </defs>
  <g id="Слой_x0020_1">
    <g id="_2030441328128">
      <path class="mainlogo0" fill="#148dc6" d="m14321.29 1083.82 366.84-325.7h-1018.49l-406.63 361.03v1156.1h1042.97v-328.49h-669.95v-268.62h669.95v-325.7h-669.95v-268.62h24.46zm-1505.25 0 366.82-325.7h-878.79l-366.85 325.7h402.09v1191.43h375.89V1083.82h24.46zm2929.45 287.89 692.99-613.59h-553.73l-417.73 368.41-16.36 14.43-16.12-14.53-437.15-393.87-263.28 232.87 420.18 407.04 18.77 18.18-19.53 17.46-439.38 392.63v489.64l723.35-642.65 16.18-14.38 16.21 14.28 720.58 634.61v-473.03l-445.18-401.1-20.28-18.27z"></path>
      <path class="mainlogo1" fill="#148dc6" d="M9749.67 1569.25c32.68-71.3 49.02-151.73 49.02-241.27 0-88.48-16.58-168.4-49.74-239.76-33.14-71.3-82.94-134.4-149.4-189.26h-.1c-56.79-47.06-116.89-82.32-180.28-105.75-63.28-23.39-130.09-35.09-200.41-35.09h-179l-406.64 361.03v1156.1h373.03V1083.82h212.61c33.5 0 64.76 5.74 93.8 17.22 28.97 11.45 55.54 28.6 79.71 51.45 24.42 23.07 42.77 49.35 55.02 78.82 12.21 29.35 18.31 61.58 18.31 96.67s-6.1 67.33-18.31 96.69c-12.26 29.48-30.6 55.76-55.02 78.84-24.18 22.83-50.76 39.98-79.73 51.42-29.02 11.47-60.29 17.21-93.78 17.21h-88.18l.75 325.7h87.43c71.29 0 138.81-11.7 202.56-35.1 63.88-23.44 124.22-58.69 180.99-105.74h.1c65.52-53.93 114.61-116.52 147.26-187.75zm-1920.54 706h373.03V758.12H7876.6l-725.63 649.99-40.7 36.46V759.82L6737.25 1091v1177.09l1051.27-930.18 40.61-35.93v54.18zM6241.76 1083.82l366.84-325.7H5590.11l-406.63 361.03v1156.1h1042.97v-328.49h-669.94v-268.62h669.94v-325.7h-669.94v-268.62h24.46zM4479.29 2275.25h373.03V758.12h-373.03v594.32h-584.88V751.37l-373.02 331.18v1192.7h373.02v-597.11h584.88v24.46z"></path>
      <path d="M3683.7 3037.09V2901h-123.68v136.09h-40.51v-290.31h40.51v121.35h123.68v-121.35h40.52v290.31h-40.52zm564.89 0-22.18-72.89h-111.32l-22.17 72.89h-40.95l94.26-290.31h51.17l93.83 290.31h-42.64zm-123.69-105.34h91.7l-45.64-151.69-46.06 151.69zm598.57 26.97c-7.67 19.1-15.77 34.13-24.3 45.08-8.53 10.96-18.77 19.39-30.7 25.28-11.96 5.9-27.01 10.26-45.21 13.07l-5.98-29.07c19.91-3.94 34.69-9.77 44.35-17.49 9.67-7.73 17.64-20.44 23.89-38.13h-14.93l-94.25-210.68h42.22l78.91 186.24 70.36-186.24h40.94l-85.3 211.94zm584.09-211.94v290.31h-40.52v-117.14c-12.52 9.28-24.39 15.88-35.61 19.81-11.24 3.93-24.24 5.9-39.03 5.9-26.15 0-47.05-7.87-62.69-23.6-15.64-15.74-23.46-36.94-23.46-63.62v-111.66h40.52v108.71c0 37.36 18.62 56.04 55.87 56.04 25.87 0 47.34-8.15 64.4-24.44v-140.31h40.52zm532.03 290.31V2901h-123.68v136.09h-40.51v-290.31h40.51v121.35h123.68v-121.35h40.51v290.31h-40.51zm513.27-295.37c24.75 0 46.42 5.83 65.04 17.49 18.63 11.66 33.13 28.73 43.51 51.2 10.37 22.47 15.56 49.71 15.56 81.74 0 31.46-5.19 58.42-15.56 80.9-10.38 22.47-24.88 39.6-43.51 51.4-18.62 11.8-40.29 17.7-65.04 17.7-24.73 0-46.41-5.77-65.03-17.28-18.62-11.52-33.13-28.51-43.5-50.98-10.38-22.48-15.58-49.58-15.58-81.32 0-31.19 5.2-58.15 15.58-80.9 10.37-22.76 24.94-40.11 43.71-52.04 18.77-11.94 40.37-17.91 64.82-17.91zm0 32.87c-25.58 0-45.49 9.55-59.71 28.65-14.21 19.1-21.32 48.88-21.32 89.33 0 40.16 7.19 69.66 21.54 88.48 14.36 18.82 34.19 28.24 59.49 28.24 54.03 0 81.04-39.06 81.04-117.14 0-78.38-27.01-117.56-81.04-117.56zm455.71 147.05v-32.86h120.69v32.86h-120.69zm734.19 115.45h-39.24l-10.23-131.04c-4.27-51.4-6.69-90.87-7.25-118.4l-63.54 216.58h-37.97l-66.95-217c0 35.11-1.85 75.71-5.54 121.77l-9.81 128.09h-38.39l24.32-290.31h54.59l61.83 211.1 58.86-211.1h55.01l24.31 290.31zm510.72-290.31-4.7 32.02h-113.87v94.8h98.95v32.03h-98.95v99.43h121.97v32.03H7894.4v-290.31h159.08zm550.8 257.45v96.06h-31.98l-6.4-63.2h-169.31l-6.41 63.2h-31.97v-96.06h20.04c7.67-7.31 13.57-16.58 17.69-27.82 4.13-11.23 7.69-26.19 10.67-44.87 2.98-18.68 7.61-52.17 13.86-100.49l10.66-84.27h149.27v257.45h23.88zm-64.4-224.58h-73.35l-5.97 53.08c-5.12 43.26-9.31 74.87-12.59 94.81-3.26 19.94-7.53 35.82-12.79 47.61-5.26 11.8-12.87 21.49-22.82 29.08h127.52v-224.58zm614.35 257.44h-40.51v-141.57c0-32.87 1.85-67.56 5.54-104.08l-118.98 245.65h-52.04v-290.31h40.51v141.58c0 39.32-1.84 74.43-5.54 105.33l120.27-246.91h50.75v290.31zm566.16-32.86h34.13v96.06h-31.99l-6.4-63.2h-194.04v-290.31h40.51v257.45h117.27v-257.45h40.52v257.45zm573.84 32.86h-40.52v-141.57c0-32.87 1.86-67.56 5.55-104.08l-118.99 245.65h-52.03v-290.31h40.51v141.58c0 39.32-1.84 74.43-5.54 105.33l120.27-246.91h50.75v290.31zm532.04 0V2901h-123.68v136.09h-40.51v-290.31h40.51v121.35h123.68v-121.35h40.52v290.31h-40.52zm511.14-295.37c17.64 0 32.49 2.25 44.57 6.74 12.09 4.5 24.38 11.8 36.89 21.92l-22.17 25.7c-17.91-14.32-36.83-21.49-56.73-21.49-24.44 0-44.14 9.27-59.06 27.8-14.92 18.54-22.39 48.33-22.39 89.34 0 39.89 7.39 69.31 22.18 88.27 14.78 18.96 34.4 28.44 58.85 28.44 12.51 0 23.45-2.11 32.84-6.32 9.38-4.21 19.34-10.11 29.84-17.7l20.06 25.29c-9.11 9.26-20.76 16.99-34.97 23.17-14.21 6.17-30.57 9.27-49.05 9.27-23.88 0-45.13-5.83-63.76-17.5-18.63-11.65-33.12-28.79-43.5-51.4-10.38-22.61-15.57-49.79-15.57-81.52 0-31.75 5.41-58.92 16.22-81.54 10.79-22.61 25.44-39.67 43.91-51.19 18.49-11.52 39.1-17.28 61.84-17.28zm614.79 5.06-81.46 136.1 89.55 154.21h-46.9l-76.77-136.09h-40.1v136.09h-40.51v-290.31h40.51v121.35h40.52l72.5-121.35h42.66zm494.08 290.31-22.18-72.89h-111.31l-22.17 72.89h-40.95l94.26-290.31h51.16l93.83 290.31h-42.64zm-123.68-105.34h91.69l-45.64-151.69-46.05 151.69zm667.23-184.97v290.31h-40.51v-114.18h-59.71l-56.72 114.18h-46.07l63.98-121.35c-18.48-7.02-32.48-17.42-42-31.18-9.53-13.76-14.3-29.91-14.3-48.45 0-28.38 9.53-50.36 28.58-65.95 19.05-15.59 46.92-23.38 83.59-23.38h83.16zm-40.51 144.52v-113.34h-40.09c-25.31 0-43.58 4.77-54.8 14.32-11.24 9.56-16.85 24.16-16.85 43.83 0 18.25 5.33 32.02 16 41.28 10.65 9.29 24.95 13.91 42.86 13.91h52.88zm980.91-1.68c0 41.57-12.15 73.1-36.47 94.59-24.31 21.49-58.21 32.8-101.72 33.93v32.85h-39.23v-32.85c-45.2-1.98-79.53-13.84-103-35.61-23.45-21.77-35.18-52.47-35.18-92.06 0-41.59 12.16-73.11 36.46-94.6 24.31-21.5 58.22-32.8 101.72-33.92v-29.5h39.23v29.5c45.21 1.96 79.54 13.82 103 35.61 23.46 21.76 35.19 52.45 35.19 92.06zm-273.81.85c0 32.29 8.04 56.31 24.1 72.04 16.07 15.73 40.44 24.3 73.15 25.7v-196.77c-33.27 1.97-57.79 10.67-73.57 26.12-15.78 15.46-23.68 39.75-23.68 72.91zm134.78 98.16c33.26-1.96 57.78-10.66 73.57-26.12 15.77-15.45 23.66-39.75 23.66-72.89 0-32.31-8.03-56.32-24.1-72.06-16.06-15.72-40.44-24.29-73.13-25.69v196.76zm687.28 48.46h-40.52v-141.57c0-32.87 1.85-67.56 5.55-104.08l-118.99 245.65h-52.03v-290.31h40.51v141.58c0 39.32-1.85 74.43-5.54 105.33l120.27-246.91h50.75v290.31zm445.04-290.31c36.39 0 64.53 7.51 84.43 22.54 19.91 15.03 29.87 37.44 29.87 67.21 0 31.74-10.39 55.34-31.15 70.78-20.74 15.45-48.32 23.18-82.73 23.18h-37.1v106.6h-40.51v-290.31h77.19zm-1.28 152.11c23.6 0 41.57-4.49 53.94-13.49 12.38-8.99 18.56-25.14 18.56-48.45 0-20.79-6.18-35.82-18.56-45.08-12.37-9.28-30.06-13.91-53.09-13.91h-36.25v120.93h35.4zm717.13 138.2h-39.24l-10.24-131.04c-4.26-51.4-6.67-90.87-7.24-118.4l-63.55 216.58h-37.95l-66.96-217c0 35.11-1.85 75.71-5.55 121.77l-9.8 128.09h-38.4l24.32-290.31h54.59l61.84 211.1 58.86-211.1h55.01l24.31 290.31zm508.15 0-22.17-72.89h-111.31l-22.18 72.89h-40.94l94.25-290.31h51.17l93.83 290.31h-42.65zm-123.67-105.34h91.69l-45.64-151.69-46.05 151.69z" fill="#2b61b8" style="fill:#2b61b8;fill-rule:nonzero"></path>
      <path class="mainlogo1" fill="#148dc6" d="m7689.49 758.12-455.54 408.02V758.12zm3891.86 1086.05c35.56-96.28 53.35-205.44 53.35-327.47 0-122.12-17.43-230.96-52.28-326.51-34.63-94.94-86.57-177.08-155.79-246.38-69.3-69.37-148.12-121.39-236.43-156.06-88.55-34.76-186.91-52.15-295.1-52.15-108.2 0-205.96 17.03-293.29 51.09-87.09 33.96-164.08 84.9-230.97 152.8-70.7 71.65-123.74 155.37-159.12 251.14-35.57 96.28-53.35 204.98-53.35 326.07 0 122.09 17.99 231.21 53.96 327.36 35.79 95.66 89.49 178.85 161.06 249.58 67.94 67.13 145.24 117.46 231.87 150.96 86.84 33.59 183.46 50.39 289.84 50.39 109.18 0 207.73-16.83 295.65-50.48 87.55-33.51 164.75-83.74 231.6-150.68 70.64-70.71 123.64-153.93 159-249.66zm-333.72-321.84c0-123.92-25.66-223.45-76.97-298.58-58.9-86.36-147.28-129.54-265.13-129.54-115.94 0-203.35 42.25-262.28 126.75-51.31 75.08-76.97 175.56-76.97 301.37 0 129.58 24.71 230.01 74.11 301.37 57.04 82.64 145.4 123.95 265.14 123.95 117.85 0 206.23-41.31 265.13-123.95 51.31-73.22 76.97-173.69 76.97-301.37zM411.15 1982.58c59.47-199 286.01-561.05 568.42-607.52 282.4-46.47 407.13 105.45 644.02 143.77 236.89 38.31 469.36-102.77 590.38-492.46-54.03 425.74-352.46 636.83-564.04 675.06-211.57 38.24-395.79-145.34-632.33-162.84-236.52-17.5-525.28 212.13-606.45 443.99z"></path>
      <path class="mainlogo1" fill="#148dc6" d="m1312.57 0 656.26 378.9 656.27 378.89v1515.6l-656.27 378.89-656.26 378.9-656.27-378.9L.02 2273.39V757.79L656.3 378.9 1312.57 0zm-.01 371.12 495.57 286.12 495.57 286.12v1144.46l-495.57 286.11-495.57 286.13-495.57-286.13-495.56-286.11V943.36l495.56-286.12 495.57-286.12z"></path>
      <path class="mainlogo0" fill="#148dc6" d="M2625.1 758.04v1515.35l-656.27 378.89-656.26 378.9-656.27-378.9L.24 2273.51l321.4-185.56 495.35 285.98 495.57 286.13 495.57-286.13 495.57-286.11V943.6z"></path>
      <path class="mainlogo1" fill="#148dc6" d="M.24 2273.14V757.79L656.5 378.9 1312.77 0l656.27 378.9 656.06 378.77-321.41 185.56-495.35-285.98-495.56-286.13-495.57 286.13-495.57 286.11v1144.22z"></path>
    </g>
  </g>
</svg>